<?xml version="1.0" standalone="no"?>
<!DOCTYPE svg PUBLIC "-//W3C//DTD SVG 20010904//EN"
 "http://www.w3.org/TR/2001/REC-SVG-20010904/DTD/svg10.dtd">
<svg version="1.0" xmlns="http://www.w3.org/2000/svg"
 width="144.000000pt" height="144.000000pt" viewBox="0 0 144.000000 144.000000"
 preserveAspectRatio="xMidYMid meet">
<metadata>
Created by potrace 1.14, written by Peter Selinger 2001-2017
</metadata>
<g transform="translate(0.000000,144.000000) scale(0.100000,-0.100000)"
fill="#000000" stroke="none">
<path d="M0 720 l0 -720 720 0 720 0 0 720 0 720 -720 0 -720 0 0 -720z m416
618 c-216 -220 -265 -526 -129 -808 38 -79 59 -108 132 -180 69 -69 103 -94
171 -127 252 -123 534 -85 737 101 57 52 64 56 47 27 -34 -58 -133 -159 -202
-204 -246 -164 -550 -168 -799 -11 -198 125 -333 372 -333 609 0 206 110 436
268 560 42 33 163 107 188 115 0 0 -36 -37 -80 -82z"/>
</g>
</svg>
